<svg width="512" height="448" viewBox="0 0 512 448" fill="none" xmlns="http://www.w3.org/2000/svg">
<path d="M377.9 73.9L500.7 196.7C507.9 203.9 512 213.8 512 224C512 234.2 507.9 244.1 500.7 251.3L377.9 374.1C371.5 380.5 362.9 384 353.9 384C335.2 384 320 368.8 320 350.1V288H192C174.3 288 160 273.7 160 256V192C160 174.3 174.3 160 192 160H320V97.9C320 79.2 335.2 64 353.9 64C362.9 64 371.5 67.6 377.9 73.9ZM160 64H96C78.3 64 64 78.3 64 96V352C64 369.7 78.3 384 96 384H160C177.7 384 192 398.3 192 416C192 433.7 177.7 448 160 448H96C43 448 0 405 0 352V96C0 43 43 0 96 0H160C177.7 0 192 14.3 192 32C192 49.7 177.7 64 160 64Z" fill="white"/>
</svg>
