<?xml version="1.0" encoding="utf-8"?>
<!-- Generator: Adobe Illustrator 28.0.0, SVG Export Plug-In . SVG Version: 6.00 Build 0)  -->
<svg version="1.1" id="Layer_1" xmlns="http://www.w3.org/2000/svg" xmlns:xlink="http://www.w3.org/1999/xlink" x="0px" y="0px"
	 viewBox="0 0 1024 700" style="enable-background:new 0 0 1024 700;" xml:space="preserve">
<style type="text/css">
	.st0{fill:#00ADEE;}
	.st1{fill:#7D7AFF;}
	.st2{fill:#0974FF;}
	.st3{fill:#FFFFFF;}
	.st4{fill:#53F1AD;}
</style>
<rect class="st0" width="1024" height="700"/>
<path class="st1" d="M876.8,475.3L876.8,475.3c-27,0-48.9-21.9-48.9-48.9v0c0-27,21.9-48.9,48.9-48.9h0c27,0,48.9,21.9,48.9,48.9v0
	C925.7,453.4,903.8,475.3,876.8,475.3z"/>
<path class="st2" d="M726.2,564.2c0,2.9-2.5,4.9-4.9,4.9h-88.2c-2.9,0-4.9-2-4.9-4.9c0-2.9,2-4.9,4.9-4.9h88.2
	C724.2,559.3,726.2,561.3,726.2,564.2z M643.4,500.5H712v44.1h-68.6V500.5z M643.4,554.4H712c5.4,0,9.8-4.4,9.8-9.8v-44.1
	c0-5.4-4.4-9.8-9.8-9.8h-68.6c-5.4,0-9.8,4.4-9.8,9.8v44.1C633.6,550,638,554.4,643.4,554.4z"/>
<g>
	<ellipse transform="matrix(0.5257 -0.8507 0.8507 0.5257 68.4781 939.5018)" class="st3" cx="876.8" cy="408.3" rx="6" ry="6"/>
	<circle class="st3" cx="895.1" cy="408.3" r="6"/>
	<circle class="st3" cx="858.5" cy="408.3" r="6"/>
	<ellipse transform="matrix(0.9239 -0.3827 0.3827 0.9239 -96.4375 367.9898)" class="st3" cx="876.8" cy="426.4" rx="6" ry="6"/>
	<ellipse transform="matrix(0.5257 -0.8507 0.8507 0.5257 61.801 963.6596)" class="st3" cx="895.1" cy="426.4" rx="6" ry="6"/>
	<circle class="st3" cx="858.5" cy="426.4" r="6"/>
	<circle class="st3" cx="895.1" cy="444.5" r="6"/>
	<circle class="st3" cx="858.5" cy="444.5" r="6"/>
	<ellipse transform="matrix(0.9701 -0.2425 0.2425 0.9701 -81.6221 225.9226)" class="st3" cx="876.8" cy="444.5" rx="6" ry="6"/>
</g>
<path class="st4" d="M750.6,293.3L750.6,293.3c-30.8,0-55.8-25-55.8-55.8v0c0-30.8,25-55.8,55.8-55.8h0c30.8,0,55.8,25,55.8,55.8v0
	C806.4,268.3,781.4,293.3,750.6,293.3z"/>
<path class="st2" d="M760.6,256.9c2.1-4.5,3.3-10.5,3.5-16.7h8.1C771.3,247.5,766.8,253.7,760.6,256.9L760.6,256.9z M728.9,240.2
	h8.1c0.2,6.1,1.4,12.1,3.5,16.7C734.3,253.7,729.8,247.5,728.9,240.2L728.9,240.2z M740.5,218.1c-2.1,4.5-3.3,10.5-3.5,16.7h-8.1
	C729.8,227.5,734.3,221.4,740.5,218.1L740.5,218.1z M742.5,234.8c0.5-10.8,3.9-19.1,8.1-19.1c4.2,0,7.6,8.3,8.1,19.1H742.5
	L742.5,234.8z M750.6,259.4c-4.2,0-7.6-8.3-8.1-19.1h16.3C758.2,251,754.8,259.4,750.6,259.4L750.6,259.4z M772.2,234.8h-8.1
	c-0.2-6.1-1.4-12.1-3.5-16.7C766.9,221.4,771.4,227.5,772.2,234.8L772.2,234.8z M777.9,237.5c0-15-12.3-27.3-27.3-27.3
	c-15,0-27.3,12.3-27.3,27.3c0,15,12.3,27.3,27.3,27.3C765.6,264.8,777.9,252.6,777.9,237.5z"/>
</svg>
